<svg height="512" viewBox="0 0 256 256" width="512" xmlns="http://www.w3.org/2000/svg"><rect fill="#63bce7" height="193.62" rx="8.78" width="226.015" x="14.993" y="25.313"/><path d="m33.493 210.153v-176.06a8.78 8.78 0 0 1 8.78-8.78h-18.5a8.78 8.78 0 0 0 -8.78 8.78v176.06a8.78 8.78 0 0 0 8.78 8.78h18.5a8.78 8.78 0 0 1 -8.78-8.78z" fill="#6377e7"/><path d="m222.507 210.153v-176.06a8.78 8.78 0 0 0 -8.78-8.78h18.5a8.78 8.78 0 0 1 8.78 8.78v176.06a8.78 8.78 0 0 1 -8.78 8.78h-18.5a8.78 8.78 0 0 0 8.78-8.78z" fill="#63e2e7"/><path d="m241.007 34.093a8.78 8.78 0 0 0 -8.78-8.78h-208.454a8.78 8.78 0 0 0 -8.78 8.78v33.722h226.014z" fill="#f46275"/><path d="m42.273 25.313h-18.5a8.78 8.78 0 0 0 -8.78 8.78v33.722h18.5v-33.722a8.78 8.78 0 0 1 8.78-8.78z" fill="#f43075"/><path d="m213.727 25.313h18.5a8.78 8.78 0 0 1 8.78 8.78v33.722h-18.5v-33.722a8.78 8.78 0 0 0 -8.78-8.78z" fill="#f48875"/><circle cx="42.68" cy="46.564" fill="#63bce7" r="7.084"/><circle cx="69.964" cy="46.564" fill="#63bce7" r="7.084"/><circle cx="97.249" cy="46.564" fill="#63bce7" r="7.084"/><rect fill="#63bce7" height="10.794" rx="5.397" width="100.426" x="119.978" y="41.631"/><path d="m61.833 118.29a5.254 5.254 0 0 1 -3.726-1.543l-12.224-12.224a5.27 5.27 0 0 1 0-7.452l12.224-12.223a5.269 5.269 0 0 1 7.452 7.452l-8.5 8.5 8.5 8.5a5.269 5.269 0 0 1 -3.726 8.995z" fill="#f8af23"/><path d="m101.185 118.29a5.269 5.269 0 0 1 -3.726-8.995l8.5-8.5-8.5-8.5a5.269 5.269 0 0 1 7.452-7.452l12.224 12.224a5.27 5.27 0 0 1 0 7.452l-12.224 12.224a5.254 5.254 0 0 1 -3.726 1.547z" fill="#f8af23"/><path d="m77.393 118.291a5.272 5.272 0 0 1 -4.993-6.951l8.233-24.447a5.269 5.269 0 1 1 9.987 3.363l-8.234 24.444a5.272 5.272 0 0 1 -4.993 3.591z" fill="#f8af23"/><path d="m44.34 125.234h96.66v11.21h-96.66z" fill="#f46275"/><path d="m156.5 125.234h55.16v11.21h-55.16z" fill="#f8af23"/><path d="m44.34 147.567h57.327v11.21h-57.327z" fill="#f8af23"/><path d="m116.007 147.567h95.654v11.21h-95.654z" fill="#9e9e9e"/><path d="m44.34 169.901h131.91v11.21h-131.91z" fill="#f8af23"/><path d="m190.25 169.901h21.41v11.21h-21.41z" fill="#f46275"/><path d="m44.34 192.234h167.32v11.21h-167.32z" fill="#9e9e9e"/><g fill="#3f3679"><path d="m42.68 37.98a8.584 8.584 0 1 0 8.584 8.584 8.593 8.593 0 0 0 -8.584-8.584zm0 14.167a5.584 5.584 0 1 1 5.584-5.583 5.59 5.59 0 0 1 -5.584 5.583z"/><path d="m69.964 37.98a8.584 8.584 0 1 0 8.584 8.584 8.593 8.593 0 0 0 -8.584-8.584zm0 14.167a5.584 5.584 0 1 1 5.584-5.583 5.59 5.59 0 0 1 -5.584 5.583z"/><path d="m97.249 37.98a8.584 8.584 0 1 0 8.584 8.584 8.593 8.593 0 0 0 -8.584-8.584zm0 14.167a5.584 5.584 0 1 1 5.584-5.583 5.59 5.59 0 0 1 -5.584 5.583z"/><path d="m215.007 40.13h-89.632a6.9 6.9 0 0 0 0 13.794h89.632a6.9 6.9 0 1 0 0-13.794zm0 10.794h-89.632a3.9 3.9 0 0 1 0-7.794h89.632a3.9 3.9 0 1 1 0 7.794z"/><path d="m25.89 229.187h-18.5a1.5 1.5 0 1 0 0 3h18.5a1.5 1.5 0 1 0 0-3z"/><path d="m248.61 229.187h-18.5a1.5 1.5 0 0 0 0 3h18.5a1.5 1.5 0 0 0 0-3z"/><path d="m215.337 229.187h-174.674a1.5 1.5 0 0 0 0 3h174.674a1.5 1.5 0 0 0 0-3z"/><path d="m7.39 220.433h241.22a1.5 1.5 0 0 0 0-3h-9.134a10.249 10.249 0 0 0 3.03-7.28v-176.06a10.291 10.291 0 0 0 -10.279-10.28h-208.455a10.291 10.291 0 0 0 -10.279 10.28v176.06a10.248 10.248 0 0 0 3.03 7.28h-9.133a1.5 1.5 0 1 0 0 3zm9.1-186.34a7.288 7.288 0 0 1 7.279-7.28h208.459a7.288 7.288 0 0 1 7.279 7.28v32.222h-223.014zm0 176.06v-140.838h223.017v140.838a7.288 7.288 0 0 1 -7.279 7.28h-208.456a7.288 7.288 0 0 1 -7.279-7.28z"/><path d="m57.046 117.808a6.769 6.769 0 0 0 9.573-9.573l-7.437-7.435 7.437-7.437a6.769 6.769 0 1 0 -9.573-9.573l-12.224 12.221a6.778 6.778 0 0 0 0 9.573zm-10.1-19.676 12.221-12.223a3.769 3.769 0 1 1 5.331 5.33l-8.5 8.5a1.5 1.5 0 0 0 0 2.121l8.5 8.5a3.775 3.775 0 0 1 0 5.33 3.862 3.862 0 0 1 -5.331 0l-12.224-12.227a3.775 3.775 0 0 1 0-5.331z"/><path d="m96.4 117.808a6.771 6.771 0 0 0 9.573 0l12.227-12.224a6.778 6.778 0 0 0 0-9.573l-12.228-12.224a6.769 6.769 0 0 0 -9.572 9.573l7.438 7.437-7.438 7.438a6.778 6.778 0 0 0 0 9.573zm2.121-7.452 8.5-8.5a1.5 1.5 0 0 0 0-2.121l-8.5-8.5a3.769 3.769 0 0 1 5.331-5.331l12.224 12.224a3.775 3.775 0 0 1 0 5.331l-12.224 12.223a3.862 3.862 0 0 1 -5.331 0 3.775 3.775 0 0 1 -.001-5.326z"/><path d="m75.231 119.436a6.764 6.764 0 0 0 8.576-4.255l8.233-24.447a6.769 6.769 0 1 0 -12.831-4.32l-8.233 24.447a6.769 6.769 0 0 0 4.255 8.575zm-1.411-7.618 8.233-24.447a3.769 3.769 0 1 1 7.147 2.406l-8.233 24.447a3.769 3.769 0 1 1 -7.144-2.406z"/><path d="m44.34 137.944h96.66a1.5 1.5 0 0 0 1.5-1.5v-11.21a1.5 1.5 0 0 0 -1.5-1.5h-96.66a1.5 1.5 0 0 0 -1.5 1.5v11.21a1.5 1.5 0 0 0 1.5 1.5zm1.5-11.21h93.66v8.21h-93.66z"/><path d="m211.66 123.734h-55.16a1.5 1.5 0 0 0 -1.5 1.5v11.21a1.5 1.5 0 0 0 1.5 1.5h55.16a1.5 1.5 0 0 0 1.5-1.5v-11.21a1.5 1.5 0 0 0 -1.5-1.5zm-1.5 11.21h-52.16v-8.21h52.16z"/><path d="m44.34 160.278h57.327a1.5 1.5 0 0 0 1.5-1.5v-11.21a1.5 1.5 0 0 0 -1.5-1.5h-57.327a1.5 1.5 0 0 0 -1.5 1.5v11.21a1.5 1.5 0 0 0 1.5 1.5zm1.5-11.21h54.327v8.21h-54.327z"/><path d="m211.66 146.067h-95.653a1.5 1.5 0 0 0 -1.5 1.5v11.21a1.5 1.5 0 0 0 1.5 1.5h95.653a1.5 1.5 0 0 0 1.5-1.5v-11.21a1.5 1.5 0 0 0 -1.5-1.5zm-1.5 11.21h-92.653v-8.21h92.653z"/><path d="m44.34 182.611h131.91a1.5 1.5 0 0 0 1.5-1.5v-11.211a1.5 1.5 0 0 0 -1.5-1.5h-131.91a1.5 1.5 0 0 0 -1.5 1.5v11.21a1.5 1.5 0 0 0 1.5 1.501zm1.5-11.21h128.91v8.21h-128.91z"/><path d="m211.66 168.4h-21.41a1.5 1.5 0 0 0 -1.5 1.5v11.21a1.5 1.5 0 0 0 1.5 1.5h21.41a1.5 1.5 0 0 0 1.5-1.5v-11.21a1.5 1.5 0 0 0 -1.5-1.5zm-1.5 11.21h-18.41v-8.21h18.41z"/><path d="m211.66 190.734h-167.32a1.5 1.5 0 0 0 -1.5 1.5v11.21a1.5 1.5 0 0 0 1.5 1.5h167.32a1.5 1.5 0 0 0 1.5-1.5v-11.21a1.5 1.5 0 0 0 -1.5-1.5zm-1.5 11.21h-164.32v-8.21h164.32z"/></g></svg>